<svg xmlns="http://www.w3.org/2000/svg" viewBox="0 0 1000 1000" width="1000" height="1000">
  <defs>
    <linearGradient id="bgGradient" x1="0%" y1="0%" x2="100%" y2="100%">
      <stop offset="0%" stop-color="#0F2027" />
      <stop offset="50%" stop-color="#203A43" />
      <stop offset="100%" stop-color="#2C5364" />
    </linearGradient>
    
    <linearGradient id="codeGradient" x1="0%" y1="0%" x2="100%" y2="0%">
      <stop offset="0%" stop-color="#4ca5ff" />
      <stop offset="100%" stop-color="#b673f8" />
    </linearGradient>
    
    <filter id="glow" x="-20%" y="-20%" width="140%" height="140%">
      <feGaussianBlur stdDeviation="10" result="blur" />
      <feComposite in="SourceGraphic" in2="blur" operator="over" />
    </filter>
  </defs>
  
  <!-- Background -->
  <rect x="0" y="0" width="1000" height="1000" fill="url(#bgGradient)" />
  
  <!-- Animated particles -->
  <g id="particles">
    <circle cx="150" cy="150" r="5" fill="#ffffff" opacity="0.7">
      <animate attributeName="cy" from="150" to="850" dur="15s" repeatCount="indefinite" />
    </circle>
    <circle cx="300" cy="200" r="4" fill="#ffffff" opacity="0.5">
      <animate attributeName="cx" from="300" to="700" dur="12s" repeatCount="indefinite" />
    </circle>
    <circle cx="450" cy="300" r="6" fill="#ffffff" opacity="0.6">
      <animate attributeName="cy" from="300" to="700" dur="10s" repeatCount="indefinite" />
    </circle>
    <circle cx="600" cy="400" r="5" fill="#ffffff" opacity="0.7">
      <animate attributeName="cx" from="600" to="200" dur="18s" repeatCount="indefinite" />
    </circle>
    <circle cx="750" cy="500" r="4" fill="#ffffff" opacity="0.5">
      <animate attributeName="cy" from="500" to="200" dur="14s" repeatCount="indefinite" />
    </circle>
  </g>
  
  <!-- Code editor window -->
  <g transform="translate(180, 230)">
    <!-- Editor background -->
    <rect x="0" y="0" width="650" height="450" rx="12" ry="12" fill="#1E1E1E" />
    
    <!-- Editor header -->
    <rect x="0" y="0" width="650" height="35" rx="12" ry="12" fill="#333333" />
    <circle cx="22" cy="17" r="6" fill="#FF5F56" />
    <circle cx="45" cy="17" r="6" fill="#FFBD2E" />
    <circle cx="68" cy="17" r="6" fill="#27C93F" />
    <text x="325" y="22" font-family="Consolas, monospace" font-size="14" fill="#FFFFFF" text-anchor="middle">reseter-portfolio.js</text>
    
    <!-- Code lines -->
    <g font-family="Consolas, monospace" font-size="16" fill="#CCCCCC">
      <text x="25" y="65" fill="#6A9955">// Welcome to reseter portfolio</text>
      <text x="25" y="95" fill="#569CD6">const</text>
      <text x="70" y="95" fill="#4FC1FF">developer</text>
      <text x="145" y="95" fill="#D4D4D4">=</text>
      <text x="160" y="95" fill="#D4D4D4">{</text>
      <text x="45" y="125" fill="#9CDCFE">name:</text>
      <text x="90" y="125" fill="#CE9178">'Reseter'</text>
      <text x="180" y="125" fill="#D4D4D4">,</text>
      <text x="45" y="155" fill="#9CDCFE">skills:</text>
      <text x="100" y="155" fill="#D4D4D4">[</text>
      <text x="110" y="155" fill="#CE9178">'JavaScript'</text>
      <text x="210" y="155" fill="#D4D4D4">,</text>
      <text x="220" y="155" fill="#CE9178">'React'</text>
      <text x="280" y="155" fill="#D4D4D4">,</text>
      <text x="290" y="155" fill="#CE9178">'Node.js'</text>
      <text x="360" y="155" fill="#D4D4D4">,</text>
      <text x="370" y="155" fill="#CE9178">'Python'</text>
      <text x="440" y="155" fill="#D4D4D4">,</text>
      <text x="450" y="155" fill="#CE9178">'Laravel'</text>
      <text x="520" y="155" fill="#D4D4D4">,</text>
      <text x="530" y="155" fill="#CE9178">'ASP.NET'</text>
      <text x="610" y="155" fill="#D4D4D4">],</text>
      <text x="45" y="185" fill="#9CDCFE">projects:</text>
      <text x="120" y="185" fill="#D4D4D4">() => {</text>
      <text x="65" y="215" fill="#C586C0">return</text>
      <text x="120" y="215" fill="#4FC1FF">fetchProjects</text>
      <text x="230" y="215" fill="#D4D4D4">()</text>
      <text x="250" y="215" fill="#D4D4D4">.</text>
      <text x="260" y="215" fill="#4FC1FF">filter</text>
      <text x="310" y="215" fill="#D4D4D4">(</text>
      <text x="320" y="215" fill="#9CDCFE">p</text>
      <text x="330" y="215" fill="#D4D4D4"> => </text>
      <text x="360" y="215" fill="#9CDCFE">p</text>
      <text x="370" y="215" fill="#D4D4D4">.</text>
      <text x="380" y="215" fill="#9CDCFE">isAwesome</text>
      <text x="470" y="215" fill="#D4D4D4">);</text>
      <text x="45" y="245" fill="#D4D4D4">},</text>
      <text x="45" y="275" fill="#9CDCFE">contact:</text>
      <text x="110" y="275" fill="#CE9178">'nguyenhuutai.reseter@gmail.com'</text>
      <text x="25" y="305" fill="#D4D4D4">};</text>
      <text x="25" y="335" fill="#569CD6">function</text>
      <text x="90" y="335" fill="#DCDCAA">renderPortfolio</text>
      <text x="220" y="335" fill="#D4D4D4">() {</text>
      <text x="45" y="365" fill="#C586C0">return</text>
      <text x="100" y="365" fill="#4FC1FF">developer</text>
      <text x="180" y="365" fill="#D4D4D4">;</text>
      <text x="25" y="395" fill="#D4D4D4">}</text>
    </g>
    
    <!-- Cursor animation -->
    <rect x="190" y="360" width="3" height="18" fill="url(#codeGradient)">
      <animate attributeName="opacity" values="0;1;0" dur="1.5s" repeatCount="indefinite" />
    </rect>
  </g>
  
  <g filter="url(#glow)">
    <!-- JavaScript icon -->
    <g transform="translate(700, 700)">
      <rect x="-35" y="-35" width="70" height="70" fill="#F7DF1E" opacity="0.8" />
      <text x="0" y="8" font-family="Arial" font-size="40" font-weight="bold" fill="#000000" text-anchor="middle">JS</text>
      <animate attributeName="opacity" values="0.7;1;0.7" dur="7s" repeatCount="indefinite" />
    </g>
    
    <!-- HTML5 icon -->
    <g transform="translate(200, 650)">
      <path d="M-28,-40 L28,-40 L35,28 L0,40 L-35,28 Z" fill="#E34F26" opacity="0.8" />
      <text x="0" y="0" font-family="Arial" font-size="20" font-weight="bold" fill="#FFFFFF" text-anchor="middle">HTML5</text>
      <animate attributeName="opacity" values="0.7;0.9;0.7" dur="6s" repeatCount="indefinite" />
    </g>
    
    <!-- CSS3 icon -->
    <g transform="translate(850, 500)">
      <path d="M-28,-40 L28,-40 L35,28 L0,40 L-35,28 Z" fill="#1572B6" opacity="0.8" />
      <text x="0" y="0" font-family="Arial" font-size="20" font-weight="bold" fill="#FFFFFF" text-anchor="middle">CSS3</text>
      <animate attributeName="opacity" values="0.6;0.8;0.6" dur="8s" repeatCount="indefinite" />
    </g>
  </g>
  
  <!-- Binary code background -->
  <g font-family="Consolas, monospace" font-size="12" fill="#ffffff" opacity="0.12">
    <text x="100" y="100">01001100 01101111 01110010 01100101 01101101</text>
    <text x="150" y="120">01001001 01110000 01110011 01110101 01101101</text>
    <text x="200" y="140">01000100 01101111 01101100 01101111 01110010</text>
    <text x="50" y="160">01010011 01101001 01110100 01000001 01101101 01100101 01110100</text>
    <text x="100" y="800">01000011 01101111 01100100 01100101 01110010</text>
    <text x="150" y="820">01010000 01101111 01110010 01110100 01100110 01101111 01101100 01101001 01101111</text>
    <text x="200" y="840">01000100 01100101 01110110 01100101 01101100 01101111 01110000 01100101 01110010</text>
    <text x="50" y="860">01010111 01100101 01100010 01000100 01100101 01110110 01100101 01101100 01101111 01110000 01100101 01110010</text>
  </g>
  
  <!-- Portfolio title -->
  <text x="500" y="150" font-family="Arial, sans-serif" font-size="50" font-weight="bold" fill="url(#codeGradient)" text-anchor="middle" filter="url(#glow)">RESETER PORTFOLIO</text>
  
  <!-- Connecting lines -->
  <g stroke="url(#codeGradient)" stroke-width="2" opacity="0.6">
    <line x1="700" y1="700" x2="600" y2="500" />
    <line x1="200" y1="650" x2="400" y2="500" />
    <line x1="850" y1="500" x2="700" y2="400" />
  </g>
</svg>